<svg width="107" height="28" viewBox="0 0 107 28" fill="none" xmlns="http://www.w3.org/2000/svg">
<path d="M20.567 19.0148C19.7666 19.0148 19.0758 18.8571 18.4946 18.5416C17.9167 18.2227 17.4716 17.7694 17.1594 17.1815C16.8506 16.5904 16.6961 15.8879 16.6961 15.0742C16.6961 14.2838 16.8522 13.5929 17.1644 13.0018C17.4766 12.4073 17.9167 11.9456 18.4846 11.6168C19.0525 11.2847 19.7218 11.1186 20.4923 11.1186C21.037 11.1186 21.5352 11.2033 21.9868 11.3727C22.4385 11.5421 22.8288 11.7928 23.1576 12.125C23.4864 12.4571 23.7421 12.8673 23.9248 13.3555C24.1075 13.8404 24.1988 14.3967 24.1988 15.0244V15.6322H17.548V14.2173H21.932C21.9287 13.9583 21.8673 13.7275 21.7477 13.5249C21.6282 13.3223 21.4638 13.1645 21.2545 13.0516C21.0486 12.9353 20.8111 12.8772 20.5421 12.8772C20.2698 12.8772 20.0257 12.9387 19.8098 13.0615C19.5939 13.1811 19.4229 13.3455 19.2967 13.5548C19.1705 13.7607 19.104 13.9948 19.0974 14.2572V15.6969C19.0974 16.0091 19.1588 16.2831 19.2817 16.5189C19.4046 16.7514 19.579 16.9324 19.8048 17.062C20.0306 17.1915 20.2997 17.2563 20.6119 17.2563C20.8277 17.2563 21.0237 17.2264 21.1997 17.1666C21.3757 17.1068 21.5269 17.0188 21.6531 16.9025C21.7793 16.7863 21.8739 16.6435 21.937 16.4741L24.1739 16.5389C24.0809 17.0404 23.8766 17.4771 23.5611 17.8491C23.2489 18.2178 22.8387 18.505 22.3306 18.711C21.8224 18.9135 21.2346 19.0148 20.567 19.0148Z" fill="currentColor"/>
<path d="M27.8791 14.5063V18.8704H25.443V11.2183H27.7596V12.6231H27.8442C28.0136 12.1549 28.3026 11.7879 28.7111 11.5222C29.1196 11.2531 29.6062 11.1186 30.1708 11.1186C30.7088 11.1186 31.1754 11.2399 31.5707 11.4823C31.9692 11.7214 32.2781 12.0569 32.4973 12.4886C32.7198 12.9171 32.8294 13.4186 32.8261 13.9932V18.8704H30.39V14.4714C30.3933 14.0463 30.2853 13.7142 30.0661 13.475C29.8503 13.2359 29.5497 13.1163 29.1644 13.1163C28.9087 13.1163 28.6829 13.1728 28.4869 13.2857C28.2943 13.3953 28.1448 13.5531 28.0385 13.759C27.9356 13.9649 27.8824 14.214 27.8791 14.5063Z" fill="currentColor"/>
<path d="M34.3343 18.8704V11.2183H36.7705V18.8704H34.3343ZM35.5549 10.3265C35.2128 10.3265 34.9189 10.2136 34.6731 9.98775C34.4273 9.75859 34.3044 9.48293 34.3044 9.16077C34.3044 8.84193 34.4273 8.56959 34.6731 8.34375C34.9189 8.11458 35.2128 8 35.5549 8C35.9003 8 36.1942 8.11458 36.4367 8.34375C36.6824 8.56959 36.8053 8.84193 36.8053 9.16077C36.8053 9.48293 36.6824 9.75859 36.4367 9.98775C36.1942 10.2136 35.9003 10.3265 35.5549 10.3265Z" fill="currentColor"/>
<path d="M40.7572 14.5063V18.8704H38.3211V11.2183H40.6376V12.6231H40.7223C40.8917 12.1549 41.1806 11.7879 41.5891 11.5222C41.9977 11.2531 42.4842 11.1186 43.0488 11.1186C43.5869 11.1186 44.0535 11.2399 44.4487 11.4823C44.8473 11.7214 45.1561 12.0569 45.3753 12.4886C45.5979 12.9171 45.7075 13.4186 45.7041 13.9932V18.8704H43.268V14.4714C43.2713 14.0463 43.1634 13.7142 42.9442 13.475C42.7283 13.2359 42.4278 13.1163 42.0425 13.1163C41.7868 13.1163 41.5609 13.1728 41.365 13.2857C41.1723 13.3953 41.0229 13.5531 40.9166 13.759C40.8136 13.9649 40.7605 14.214 40.7572 14.5063Z" fill="currentColor"/>
<path d="M62.708 15.5674V11.2183H65.1391V18.8704H62.8176V17.4456H62.7378C62.5685 17.9139 62.2795 18.2858 61.871 18.5615C61.4658 18.8338 60.9759 18.97 60.4014 18.97C59.8799 18.97 59.4216 18.8504 59.0264 18.6113C58.6311 18.3722 58.3239 18.0384 58.1047 17.61C57.8855 17.1782 57.7743 16.6734 57.771 16.0955V11.2183H60.2071V15.6172C60.2104 16.0324 60.32 16.3595 60.5359 16.5987C60.7518 16.8378 61.0457 16.9573 61.4177 16.9573C61.6601 16.9573 61.8777 16.9042 62.0703 16.7979C62.2662 16.6883 62.4207 16.5306 62.5336 16.3247C62.6498 16.1154 62.708 15.863 62.708 15.5674Z" fill="currentColor"/>
<path d="M68.8468 18.9999C68.3586 18.9999 67.9252 18.9185 67.5466 18.7558C67.1713 18.5897 66.874 18.3406 66.6548 18.0085C66.4389 17.6731 66.331 17.2529 66.331 16.7481C66.331 16.323 66.4057 15.9643 66.5552 15.672C66.7046 15.3798 66.9106 15.1423 67.1729 14.9596C67.4353 14.777 67.7375 14.6391 68.0796 14.5461C68.4217 14.4498 68.787 14.3851 69.1756 14.3518C69.6107 14.312 69.9611 14.2705 70.2268 14.2273C70.4925 14.1808 70.6851 14.116 70.8047 14.033C70.9276 13.9467 70.989 13.8254 70.989 13.6693V13.6444C70.989 13.3887 70.901 13.1911 70.725 13.0516C70.549 12.9121 70.3115 12.8423 70.0126 12.8423C69.6904 12.8423 69.4314 12.9121 69.2354 13.0516C69.0395 13.1911 68.9149 13.3837 68.8618 13.6295L66.615 13.5498C66.6814 13.0848 66.8524 12.6696 67.1281 12.3043C67.4071 11.9357 67.789 11.6467 68.2739 11.4375C68.7621 11.2249 69.3483 11.1186 70.0325 11.1186C70.5207 11.1186 70.9708 11.1768 71.3826 11.293C71.7944 11.4059 72.1531 11.572 72.4587 11.7912C72.7642 12.0071 73 12.2728 73.1661 12.5883C73.3355 12.9038 73.4202 13.2641 73.4202 13.6693V18.8704H71.1285V17.8043H71.0687C70.9326 18.0633 70.7582 18.2825 70.5456 18.4619C70.3364 18.6412 70.089 18.7757 69.8033 18.8654C69.521 18.9551 69.2022 18.9999 68.8468 18.9999ZM69.5991 17.4057C69.8615 17.4057 70.0973 17.3526 70.3065 17.2463C70.5191 17.14 70.6884 16.9939 70.8147 16.8079C70.9409 16.6186 71.004 16.3994 71.004 16.1503V15.4229C70.9342 15.4595 70.8495 15.4927 70.7499 15.5226C70.6536 15.5525 70.5473 15.5807 70.4311 15.6073C70.3148 15.6338 70.1952 15.6571 70.0724 15.677C69.9495 15.6969 69.8316 15.7152 69.7187 15.7318C69.4895 15.7683 69.2935 15.8248 69.1308 15.9012C68.9714 15.9776 68.8485 16.0772 68.7621 16.2001C68.6791 16.3197 68.6376 16.4625 68.6376 16.6285C68.6376 16.881 68.7273 17.0736 68.9066 17.2064C69.0893 17.3393 69.3201 17.4057 69.5991 17.4057Z" fill="currentColor"/>
<path d="M77.7045 18.98C77.1399 18.98 76.6268 18.8338 76.1651 18.5416C75.7035 18.2493 75.3348 17.8109 75.0592 17.2264C74.7835 16.6418 74.6457 15.9161 74.6457 15.0493C74.6457 14.1493 74.7885 13.4086 75.0741 12.8274C75.3597 12.2462 75.7334 11.8161 76.195 11.5371C76.66 11.2581 77.1599 11.1186 77.6946 11.1186C78.0964 11.1186 78.4402 11.1884 78.7258 11.3279C79.0114 11.464 79.2472 11.6401 79.4332 11.8559C79.6192 12.0718 79.7604 12.296 79.8567 12.5285H79.9065V8.66757H82.3426V18.8704H79.9314V17.6299H79.8567C79.7537 17.8657 79.6076 18.0866 79.4183 18.2925C79.229 18.4984 78.9915 18.6645 78.7059 18.7907C78.4236 18.9169 78.0898 18.98 77.7045 18.98ZM78.5514 17.0819C78.847 17.0819 79.0994 16.9989 79.3087 16.8328C79.5179 16.6634 79.679 16.426 79.7919 16.1204C79.9048 15.8148 79.9613 15.4562 79.9613 15.0443C79.9613 14.6258 79.9048 14.2655 79.7919 13.9633C79.6823 13.661 79.5212 13.4285 79.3087 13.2658C79.0994 13.1031 78.847 13.0217 78.5514 13.0217C78.2492 13.0217 77.9935 13.1047 77.7842 13.2708C77.575 13.4368 77.4156 13.671 77.306 13.9732C77.1997 14.2755 77.1466 14.6325 77.1466 15.0443C77.1466 15.4562 77.2014 15.8148 77.311 16.1204C77.4206 16.426 77.5783 16.6634 77.7842 16.8328C77.9935 16.9989 78.2492 17.0819 78.5514 17.0819Z" fill="currentColor"/>
<path d="M83.8833 18.8704V11.2183H86.2496V12.6132H86.3293C86.4688 12.1084 86.6963 11.7331 87.0119 11.4873C87.3274 11.2382 87.6944 11.1137 88.1128 11.1137C88.2258 11.1137 88.342 11.122 88.4616 11.1386C88.5811 11.1518 88.6924 11.1734 88.7954 11.2033V13.3206C88.6791 13.2807 88.5263 13.2492 88.337 13.2259C88.151 13.2027 87.985 13.1911 87.8388 13.1911C87.5499 13.1911 87.2892 13.2558 87.0567 13.3854C86.8275 13.5116 86.6465 13.6893 86.5137 13.9184C86.3841 14.1443 86.3194 14.41 86.3194 14.7155V18.8704H83.8833Z" fill="currentColor"/>
<path d="M91.6574 18.9999C91.1692 18.9999 90.7358 18.9185 90.3572 18.7558C89.9819 18.5897 89.6846 18.3406 89.4654 18.0085C89.2495 17.6731 89.1416 17.2529 89.1416 16.7481C89.1416 16.323 89.2163 15.9643 89.3658 15.672C89.5152 15.3798 89.7211 15.1423 89.9835 14.9596C90.2459 14.777 90.5481 14.6391 90.8902 14.5461C91.2323 14.4498 91.5976 14.3851 91.9862 14.3518C92.4213 14.312 92.7717 14.2705 93.0374 14.2273C93.3031 14.1808 93.4957 14.116 93.6153 14.033C93.7382 13.9467 93.7996 13.8254 93.7996 13.6693V13.6444C93.7996 13.3887 93.7116 13.1911 93.5356 13.0516C93.3595 12.9121 93.1221 12.8423 92.8232 12.8423C92.501 12.8423 92.242 12.9121 92.046 13.0516C91.8501 13.1911 91.7255 13.3837 91.6724 13.6295L89.4256 13.5498C89.492 13.0848 89.663 12.6696 89.9387 12.3043C90.2177 11.9357 90.5996 11.6467 91.0845 11.4375C91.5727 11.2249 92.1589 11.1186 92.8431 11.1186C93.3313 11.1186 93.7813 11.1768 94.1932 11.293C94.605 11.4059 94.9637 11.572 95.2692 11.7912C95.5748 12.0071 95.8106 12.2728 95.9767 12.5883C96.1461 12.9038 96.2307 13.2641 96.2307 13.6693V18.8704H93.9391V17.8043H93.8793C93.7431 18.0633 93.5688 18.2825 93.3562 18.4619C93.147 18.6412 92.8996 18.7757 92.6139 18.8654C92.3316 18.9551 92.0128 18.9999 91.6574 18.9999ZM92.4097 17.4057C92.6721 17.4057 92.9079 17.3526 93.1171 17.2463C93.3297 17.14 93.499 16.9939 93.6252 16.8079C93.7515 16.6186 93.8146 16.3994 93.8146 16.1503V15.4229C93.7448 15.4595 93.6601 15.4927 93.5605 15.5226C93.4642 15.5525 93.3579 15.5807 93.2416 15.6073C93.1254 15.6338 93.0058 15.6571 92.8829 15.677C92.7601 15.6969 92.6422 15.7152 92.5292 15.7318C92.3001 15.7683 92.1041 15.8248 91.9414 15.9012C91.782 15.9776 91.6591 16.0772 91.5727 16.2001C91.4897 16.3197 91.4482 16.4625 91.4482 16.6285C91.4482 16.881 91.5379 17.0736 91.7172 17.2064C91.8999 17.3393 92.1307 17.4057 92.4097 17.4057Z" fill="currentColor"/>
<path d="M12.6814 10.0814V16.8183H16.3346V18.8688H10V9.49534L12.6814 10.0814Z" fill="currentColor"/>
<path d="M52.6052 9.36712C53.1971 9.36713 53.7419 9.44822 54.2392 9.60992C54.7365 9.77164 55.1729 10.008 55.5482 10.3192C55.9235 10.6273 56.2254 11.0074 56.4543 11.459C56.6008 11.7482 56.7104 12.0644 56.7831 12.4075C56.2034 12.6659 54.2892 13.5334 54.2892 13.5334C54.2892 13.5334 54.3075 13.2243 54.2892 13.0107C54.2709 12.7971 54.2221 12.6031 54.1428 12.4292C54.0666 12.2554 53.96 12.106 53.8228 11.9809C53.6885 11.8528 53.5249 11.7548 53.3326 11.6876C53.1405 11.6175 52.9224 11.5826 52.6784 11.5826C52.2513 11.5826 51.8896 11.6861 51.5936 11.8936C51.3007 12.1011 51.0778 12.3986 50.9253 12.7861C50.7758 13.1736 50.7012 13.6392 50.7012 14.1823C50.7012 14.7559 50.7773 15.2365 50.9298 15.624C51.0854 16.0083 51.3099 16.298 51.6027 16.4932C51.8956 16.6855 52.2483 16.782 52.6602 16.782C52.8951 16.782 53.1057 16.7526 53.2917 16.6947C53.4778 16.6336 53.6396 16.5466 53.7768 16.4337C53.914 16.3208 54.0256 16.1854 54.111 16.0268C54.1992 15.8656 54.3923 15.2543 54.2897 14.8355L56.7995 15.9577C56.7425 16.2066 56.6554 16.4586 56.5365 16.7133C56.3443 17.1221 56.0711 17.5003 55.7173 17.8481C55.3664 18.1929 54.9316 18.4705 54.4129 18.681C53.8942 18.8915 53.2917 18.997 52.6052 18.997C51.9431 18.997 51.3043 18.9504 50.7759 18.6689C49.2944 17.8796 48.6094 16.5726 48.6094 16.5726C48.6094 16.5726 48.0834 15.613 48.0833 14.1823C48.0833 12.7406 48.2848 12.2598 48.6875 11.5458C49.0903 10.8289 49.6331 10.287 50.3165 9.92087C51 9.55168 51.7631 9.36712 52.6052 9.36712Z" fill="currentColor"/>
</svg>
